HIERARCHY
ROOT Hips
{
	OFFSET 0.000000 0.000000 0.000000 
	CHANNELS 6 Xposition Yposition Zposition Zrotation Yrotation Xrotation
	JOINT LeftUpLeg
	{
		OFFSET 1.363060 -1.794630 0.839290 
		CHANNELS 3 Zrotation Yrotation Xrotation
		JOINT LeftLeg
		{
			OFFSET 2.448110 -6.726130 0.000000 
			CHANNELS 3 Zrotation Yrotation Xrotation
			JOINT LeftFoot
			{
				OFFSET 2.562200 -7.039590 0.000000 
				CHANNELS 3 Zrotation Yrotation Xrotation
				JOINT LeftToeBase
				{
					OFFSET 0.157640 -0.433110 2.322550 
					CHANNELS 3 Zrotation Yrotation Xrotation
					End Site
					{
						OFFSET 0.000000 0.000000 0.000000 
					}
				}
			}
		}
	}
	JOINT RightUpLeg
	{
		OFFSET -1.305520 -1.794630 0.839290 
		CHANNELS 3 Zrotation Yrotation Xrotation
		JOINT RightLeg
		{
			OFFSET -2.542530 -6.985550 0.000000 
			CHANNELS 3 Zrotation Yrotation Xrotation
			JOINT RightFoot
			{
				OFFSET -2.568260 -7.056230 0.000000 
				CHANNELS 3 Zrotation Yrotation Xrotation
				JOINT RightToeBase
				{
					OFFSET -0.164730 -0.452590 2.363150 
					CHANNELS 3 Zrotation Yrotation Xrotation
					End Site
					{
						OFFSET 0.000000 0.000000 0.000000 
					}
				}
			}
		}
	}
	JOINT Spine
	{
		OFFSET 0.028270 2.035590 -0.193380 
		CHANNELS 3 Zrotation Yrotation Xrotation
		JOINT Spine1
		{
			OFFSET 0.056720 2.048850 -0.042750 
			CHANNELS 3 Zrotation Yrotation Xrotation
			JOINT Neck1
			{
				OFFSET -0.054170 1.746240 0.172020 
				CHANNELS 3 Zrotation Yrotation Xrotation
				JOINT Head
				{
					OFFSET 0.104070 1.761360 -0.123970 
					CHANNELS 3 Zrotation Yrotation Xrotation
					End Site
					{
						OFFSET 0.000000 0.000000 0.000000 
					}
				}
			}
			JOINT LeftArm
			{
				OFFSET 3.362410 1.200890 -0.311210 
				CHANNELS 3 Zrotation Yrotation Xrotation
				JOINT LeftForeArm
				{
					OFFSET 4.983000 -0.000000 -0.000000 
					CHANNELS 3 Zrotation Yrotation Xrotation
					JOINT LeftHand
					{
						OFFSET 3.483560 -0.000000 -0.000000 
						CHANNELS 3 Zrotation Yrotation Xrotation
						JOINT LeftHandIndex1
						{
							OFFSET 0.715260 -0.000000 -0.000000 
							CHANNELS 3 Zrotation Yrotation Xrotation
							End Site
							{
								OFFSET 0.000000 0.000000 0.000000 
							}
						}
					}
				}
			}
			JOINT RightArm
			{
				OFFSET -3.136600 1.374050 -0.404650 
				CHANNELS 3 Zrotation Yrotation Xrotation
				JOINT RightForeArm
				{
					OFFSET -5.241900 -0.000000 -0.000000 
					CHANNELS 3 Zrotation Yrotation Xrotation
					JOINT RightHand
					{
						OFFSET -3.444170 -0.000000 -0.000000 
						CHANNELS 3 Zrotation Yrotation Xrotation
						JOINT RightHandIndex1
						{
							OFFSET -0.622530 -0.000000 -0.000000 
							CHANNELS 3 Zrotation Yrotation Xrotation
							End Site
							{
								OFFSET 0.000000 0.000000 0.000000 
							}
						}
					}
				}
			}
		}
	}
}
MOTION
Frames: 15
Frame Time: 0.041667
-1.071291 18.273497 21.234146 179.520880 -3.731803 -151.179879 -46.178350 -22.728916 -18.434768 2.951331 4.489376 10.282259 -2.077815 -14.474111 -31.006016 3.209300 -11.026400 -32.368900 50.715751 21.717962 -16.903278 -3.008610 -4.050796 9.376485 -0.637257 10.208384 -35.275732 -0.684300 5.288900 -14.734300 2.971057 1.022733 -7.241663 -0.420048 -1.011881 16.792774 8.713672 -8.160343 42.746349 0.622000 -2.646600 8.530400 -110.016795 -5.487598 24.755587 13.627571 -11.548780 -1.388896 -0.423467 0.473676 5.495005 -7.125000 0.000000 0.000000 103.611887 0.629751 -3.008158 -10.937260 16.755530 -1.389111 -0.204408 -0.525936 12.888875 7.125000 0.000000 0.000000 
-1.075055 18.274819 21.243302 179.562065 -3.505162 -151.078740 -46.137683 -22.735762 -18.530198 2.943264 4.478548 10.200278 -1.975641 -14.264118 -31.106916 3.200100 -11.012200 -32.321000 50.610985 22.045123 -17.181836 -3.003309 -4.118790 9.498380 -0.577159 10.309485 -35.247919 -0.664400 5.213100 -14.517300 2.942876 1.018654 -7.255359 -0.459089 -1.007193 16.773630 8.765175 -8.420592 42.949050 0.601400 -2.782500 8.558400 -109.982923 -5.371189 24.712278 13.659598 -11.605467 -1.399337 -0.416255 0.475366 5.468057 -7.125000 0.000000 0.000000 103.622823 0.673008 -3.021829 -10.925688 16.733777 -1.384322 -0.196745 -0.528926 12.983445 7.125000 0.000000 0.000000 
-1.078209 18.274718 21.250831 179.635205 -3.374074 -151.016627 -46.061610 -22.750430 -18.604110 2.938957 4.472645 10.149490 -1.896792 -14.112224 -31.213794 3.135400 -10.911100 -31.980600 50.616269 22.234644 -17.294251 -2.992627 -4.134553 9.493743 -0.562709 10.297087 -35.206531 -0.692100 5.318500 -14.819200 2.949044 0.990937 -7.342764 -0.494554 -1.008512 16.701676 8.705263 -8.511992 42.952265 0.562500 -2.848200 8.509800 -109.925938 -5.190226 24.873479 13.696473 -11.662966 -1.413265 -0.409736 0.471536 5.320103 -7.125000 0.000000 0.000000 103.616271 0.660218 -3.142259 -10.887446 16.667042 -1.373534 -0.185665 -0.532429 13.392705 7.125000 0.000000 0.000000 
-1.079633 18.274718 21.256121 179.648467 -3.270073 -151.020432 -46.069864 -22.744096 -18.595523 2.933498 4.470525 10.130807 -1.829230 -13.977707 -31.275503 3.165300 -10.958000 -32.138300 50.624878 22.324756 -17.186934 -2.989065 -4.067543 9.288342 -0.592242 10.174896 -35.135783 -0.749600 5.530100 -15.426900 2.970527 0.937431 -7.371781 -0.464786 -1.033275 16.640257 8.522668 -8.476025 43.048060 0.510400 -2.860200 8.498900 -109.886476 -5.083750 25.030726 13.728446 -11.708872 -1.424842 -0.408808 0.469279 5.177424 -7.125000 0.000000 0.000000 103.598616 0.456706 -2.687566 -11.005229 16.835276 -1.406070 -0.179764 -0.537004 12.962484 7.125000 0.000000 0.000000 
-1.081566 18.276956 21.261412 179.640078 -3.129464 -151.109485 -46.135431 -22.677546 -18.460339 2.927340 4.432825 10.032898 -1.737884 -13.808881 -31.342200 3.225700 -11.051700 -32.454600 50.661416 22.187946 -16.980395 -3.000972 -3.958081 9.025785 -0.560172 10.262649 -34.998403 -0.745000 5.513600 -15.379400 2.954669 0.898889 -7.307123 -0.447834 -1.046780 16.614497 8.449459 -8.529485 43.148332 0.472100 -2.899900 8.499800 -109.845410 -5.121337 24.845998 13.763285 -11.764558 -1.430309 -0.391305 0.462038 5.136619 -7.125000 0.000000 0.000000 103.622810 0.300700 -2.007763 -11.100414 16.981202 -1.436096 -0.190748 -0.538515 11.747924 7.125000 0.000000 0.000000 
-1.085432 18.279296 21.266804 179.667603 -3.008256 -151.168585 -46.150342 -22.635895 -18.366757 2.924167 4.399815 9.943877 -1.669668 -13.685355 -31.399174 3.237600 -11.070100 -32.516700 50.722423 21.975582 -16.910231 -3.015637 -3.899516 8.914706 -0.454972 10.561713 -34.844326 -0.696400 5.334400 -14.864800 2.909201 0.860034 -7.239429 -0.517419 -1.048075 16.626387 8.579219 -8.801501 43.271254 0.455200 -3.024700 8.507500 -109.806499 -5.211856 24.405509 13.757303 -11.760489 -1.421389 -0.371816 0.463375 5.338644 -7.125000 0.000000 0.000000 103.669134 0.197731 -1.375766 -11.182169 17.103894 -1.459945 -0.194146 -0.540543 10.708097 7.125000 0.000000 0.000000 
-1.091130 18.278278 21.270873 179.687135 -2.928860 -151.132728 -46.138756 -22.691345 -18.420927 2.921385 4.404799 9.936323 -1.655418 -13.644618 -31.397939 3.112800 -10.875500 -31.861200 50.753661 21.688875 -16.989106 -3.037685 -3.866203 8.860520 -0.292734 10.993448 -34.648326 -0.679100 5.269300 -14.678300 2.875309 0.821685 -7.223343 -0.625709 -1.047454 16.618377 8.887923 -9.217164 43.639711 0.490300 -3.203200 8.604100 -109.780659 -5.239813 24.088001 13.715600 -11.701353 -1.406824 -0.369617 0.475165 5.583684 -7.125000 0.000000 0.000000 103.670249 0.095383 -1.390745 -11.233240 17.171245 -1.469566 -0.184164 -0.541561 11.025131 7.125000 0.000000 0.000000 
-1.097946 18.275735 21.275960 179.735954 -2.897529 -151.025680 -46.062535 -22.852223 -18.583436 2.915134 4.434267 9.959687 -1.610836 -13.519384 -31.415051 3.163200 -10.954700 -32.127200 50.762734 21.554192 -17.176884 -3.047763 -3.874347 8.867076 -0.183479 11.242571 -34.512768 -0.683600 5.286300 -14.727000 2.885526 0.769687 -7.295608 -0.705541 -1.056186 16.593566 8.730649 -9.084085 43.580269 0.460600 -3.162100 8.559100 -109.754599 -5.228689 23.940337 13.716714 -11.701501 -1.404460 -0.362263 0.472372 5.545296 -7.125000 0.000000 0.000000 103.643070 0.012797 -1.748205 -11.219817 17.150769 -1.466193 -0.185835 -0.536942 11.864570 7.125000 0.000000 0.000000 
-1.099167 18.275633 21.280436 179.721743 -2.904603 -151.013616 -46.086816 -22.842027 -18.589038 2.913955 4.431292 9.943299 -1.603000 -13.488240 -31.388154 3.314400 -11.187300 -32.914300 50.714525 21.776663 -17.172471 -3.034660 -3.887061 8.856561 -0.282240 10.954310 -34.610714 -0.713900 5.399900 -15.052600 2.898105 0.697913 -7.267222 -0.701486 -1.092061 16.557236 8.676922 -9.208130 43.942963 0.432200 -3.234500 8.652300 -109.732951 -5.264939 23.778015 13.723134 -11.710940 -1.402411 -0.355273 0.467747 5.569477 -7.125000 0.000000 0.000000 103.592793 -0.050454 -1.493944 -11.229599 17.159021 -1.469863 -0.185674 -0.538334 11.761821 7.125000 0.000000 0.000000 
-1.093063 18.278278 21.283387 179.657700 -2.940525 -151.215630 -46.227008 -22.561966 -18.319783 2.927009 4.374119 9.868053 -1.681364 -13.654179 -31.242432 3.273600 -11.125200 -32.703400 50.747279 21.916247 -16.743075 -3.020649 -3.797948 8.635503 -0.467122 10.485303 -34.713767 -0.740300 5.496600 -15.330700 2.933958 0.620445 -7.134711 -0.590013 -1.142787 16.508937 8.575677 -9.339925 44.190818 0.385100 -3.316300 8.716600 -109.766644 -5.408885 23.442514 13.688718 -11.652292 -1.387560 -0.359860 0.477955 5.901910 -7.125000 0.000000 0.000000 103.524715 -0.020483 -1.742682 -11.167237 17.055344 -1.453016 -0.172789 -0.546979 11.718200 7.125000 0.000000 0.000000 
-1.091435 18.279499 21.287354 179.676412 -3.015604 -151.362368 -46.229534 -22.442980 -18.186129 2.938777 4.355750 9.864636 -1.734907 -13.758607 -31.151207 3.219200 -11.041800 -32.420800 50.862388 21.868765 -16.430279 -3.012279 -3.718881 8.451937 -0.539929 10.289526 -34.669322 -0.754300 5.547100 -15.475800 3.013231 0.503180 -7.040107 -0.588086 -1.195237 16.440231 8.451479 -9.528198 44.621665 0.318200 -3.426000 8.836100 -109.814671 -5.515655 23.169391 13.660562 -11.609710 -1.377886 -0.377152 0.494443 6.264670 -7.125000 0.000000 0.000000 103.449339 0.104266 -3.461715 -10.924043 16.696289 -1.394934 -0.165911 -0.554952 12.462540 7.125000 0.000000 0.000000 
-1.094182 18.279397 21.291831 179.749832 -3.110357 -151.355333 -46.106246 -22.543401 -18.271478 2.942543 4.392058 9.952169 -1.739862 -13.754835 -31.162268 3.152500 -10.937900 -32.070900 50.931145 21.981930 -16.422140 -2.994737 -3.727155 8.443724 -0.595862 10.116707 -34.704238 -0.745200 5.514100 -15.380800 3.083637 0.379566 -6.999127 -0.642438 -1.243173 16.412528 8.326300 -9.647620 45.225842 0.253900 -3.498300 8.997500 -109.816539 -5.525399 23.187383 13.672968 -11.628109 -1.383578 -0.404262 0.506645 6.543186 -7.125000 0.000000 0.000000 103.429453 -0.069805 -2.296477 -11.126007 16.997831 -1.444861 -0.169467 -0.551469 12.066624 7.125000 0.000000 0.000000 
-1.095708 18.280720 21.296511 179.814955 -3.187449 -151.258789 -45.970582 -22.625487 -18.420405 2.946741 4.432253 10.038899 -1.751477 -13.758552 -31.172896 3.083900 -10.829700 -31.707600 50.966631 22.155485 -16.523428 -2.976757 -3.759859 8.483144 -0.636371 9.989400 -34.771879 -0.720300 5.423200 -15.119800 2.951316 0.314148 -7.724674 -0.533782 -1.317456 16.889385 8.434116 -9.566326 45.095144 0.305100 -3.456600 8.941100 -109.775409 -5.549608 23.195506 13.681961 -11.633590 -1.387420 -0.415614 0.517077 6.669263 -7.125000 0.000000 0.000000 103.415637 -0.253385 -1.745493 -11.275971 17.204801 -1.488191 -0.165607 -0.556681 10.924511 7.125000 0.000000 0.000000 
-1.098658 18.283467 21.302920 179.807116 -3.180832 -151.220527 -45.954508 -22.661313 -18.535126 2.947186 4.462349 10.116436 -1.800902 -13.864996 -31.175961 3.055500 -10.784300 -31.555800 50.922763 22.106592 -16.646037 -2.987190 -3.777522 8.527868 -0.565884 10.159312 -34.701675 -0.723700 5.436000 -15.156300 2.943456 0.266694 -7.793430 -0.539997 -1.329706 16.871848 8.650468 -9.682437 44.632662 0.342000 -3.505800 8.754400 -109.706455 -5.636261 22.885193 13.684901 -11.642209 -1.383810 -0.407191 0.522583 6.836275 -7.125000 0.000000 0.000000 103.428617 -0.371488 -1.855957 -11.335636 17.293235 -1.508735 -0.169236 -0.557903 10.224319 7.125000 0.000000 0.000000 
-1.103440 18.286316 21.309228 179.758817 -3.164695 -151.306606 -46.046905 -22.679436 -18.480907 2.940945 4.469665 10.161338 -1.812208 -13.929556 -31.232589 3.112800 -10.875500 -31.861000 50.899124 21.807612 -16.594061 -3.012970 -3.749047 8.512022 -0.474384 10.418405 -34.575309 -0.697000 5.336600 -14.871100 2.923402 0.212018 -7.744548 -0.554307 -1.341868 16.827154 8.617757 -9.702107 44.595764 0.328100 -3.528300 8.718700 -109.638431 -5.651049 22.709346 13.761919 -11.771906 -1.403286 -0.404462 0.521975 7.038978 -7.125000 0.000000 0.000000 103.399129 -0.377837 -2.304517 -11.366642 17.346729 -1.520271 -0.165658 -0.557824 10.975514 7.125000 0.000000 0.000000 
